<svg viewBox="0 0 19.2 34.999" xmlns="http://www.w3.org/2000/svg" xmlns:xlink="http://www.w3.org/1999/xlink" width="19.199951" height="34.999023" fill="none" customFrame="#000000">
	<path id="Форма 2" d="M15.882 0.0103374L1.32696 2.86234C1.08796 2.90934 0.910959 3.11234 0.89596 3.35534L0.000959396 18.4763C-0.0200405 18.8323 0.306959 19.1093 0.654959 19.0283L4.70696 18.0933C5.08596 18.0063 5.42896 18.3393 5.35096 18.7213L4.14696 24.6163C4.06596 25.0133 4.43796 25.3523 4.82596 25.2343L7.32896 24.4743C7.71696 24.3563 8.08996 24.6963 8.00796 25.0943L6.09496 34.3543C5.97496 34.9333 6.74596 35.2493 7.06696 34.7523L7.28196 34.4203L19.142 10.7513C19.341 10.3553 18.998 9.90334 18.563 9.98734L14.392 10.7923C14 10.8683 13.667 10.5033 13.777 10.1193L16.499 0.681339C16.609 0.299337 16.275 -0.0666625 15.882 0.0103374Z" fill="rgb(0,0,0)" fill-rule="nonzero" />
</svg>
