<svg viewBox="0 0 139.906 40" xmlns="http://www.w3.org/2000/svg" xmlns:xlink="http://www.w3.org/1999/xlink" width="139.905884" height="40.000000" fill="none" customFrame="#000000">
    <defs>
        <clipPath id="clipPath_0">
            <rect width="39.905884" height="40.000000" x="0.000000" y="0.000000" fill="rgb(255,255,255)" />
        </clipPath>
    </defs>
    <rect id="Logo" width="139.905884" height="40.000000" x="0.000000" y="0.000000" />
    <g id="logo 1" clip-path="url(#clipPath_0)" customFrame="url(#clipPath_0)">
        <rect id="logo 1" width="39.905884" height="40.000000" x="0.000000" y="0.000000" fill="rgb(255,255,255)" fill-opacity="0" />
        <g id="Group">
            <g id="Group">
                <path id="Vector" d="M31.5294 14.2118C31.5294 18.8819 28.7623 22.9082 24.7793 24.7351C26.4612 23.3496 27.5322 21.248 27.5322 18.896C27.5322 14.7642 24.2259 11.4042 20.112 11.3205C20.0574 11.3167 20.0075 11.3167 19.9529 11.3167C19.8983 11.3167 19.8485 11.3167 19.7939 11.3205C18.2673 11.4033 17.0588 12.6663 17.0588 14.2108L17.0588 28.6814C17.0588 33.4748 13.1699 37.3638 8.37646 37.3638L8.37646 14.2118C8.37646 7.81928 13.5605 2.63528 19.9529 2.63528C26.3454 2.63528 31.5294 7.81928 31.5294 14.2118Z" fill="rgb(0,0,0)" fill-rule="evenodd" />
                <path id="Vector" d="M2.89412 5.78824C4.49249 5.78824 5.78824 4.49249 5.78824 2.89412C5.78824 1.29574 4.49249 0 2.89412 0C1.29574 0 0 1.29574 0 2.89412C0 4.49249 1.29574 5.78824 2.89412 5.78824Z" fill="rgb(0,0,0)" fill-rule="evenodd" transform="matrix(0.7071,-0.7071,0.7071,0.7071,15.8599,14.2118)" />
            </g>
        </g>
    </g>
    <path id="Personal" d="M56.4259 22.62L56.4259 19.78L59.0459 19.78C59.5526 19.78 59.9859 19.68 60.3459 19.48C60.7192 19.28 61.0059 19 61.2059 18.64C61.4059 18.2667 61.5059 17.84 61.5059 17.36C61.5059 16.8533 61.4059 16.42 61.2059 16.06C61.0059 15.6867 60.7192 15.4067 60.3459 15.22C59.9859 15.02 59.5526 14.92 59.0459 14.92L56.4259 14.92L56.4259 12.08L58.8859 12.08C60.1259 12.08 61.1859 12.2867 62.0659 12.7C62.9592 13.1133 63.6392 13.7 64.1059 14.46C64.5859 15.22 64.8259 16.1333 64.8259 17.2L64.8259 17.52C64.8259 18.56 64.5859 19.4667 64.1059 20.24C63.6392 21 62.9592 21.5867 62.0659 22C61.1859 22.4133 60.1259 22.62 58.8859 22.62L56.4259 22.62ZM53.5459 26.8L53.5459 12.08L56.8259 12.08L56.8259 26.8L53.5459 26.8ZM71.189 27.18C70.2557 27.18 69.429 27.02 68.709 26.7C68.0023 26.38 67.409 25.9533 66.929 25.42C66.4623 24.8733 66.1023 24.2667 65.849 23.6C65.609 22.92 65.489 22.2267 65.489 21.52L65.489 21.12C65.489 20.3867 65.609 19.6867 65.849 19.02C66.1023 18.34 66.4623 17.7333 66.929 17.2C67.3957 16.6667 67.9757 16.2467 68.669 15.94C69.3757 15.62 70.1757 15.46 71.069 15.46C72.2423 15.46 73.229 15.7267 74.029 16.26C74.8423 16.78 75.4623 17.4667 75.889 18.32C76.3157 19.16 76.529 20.08 76.529 21.08L76.529 22.16L66.829 22.16L66.829 20.34L74.589 20.34L73.549 21.18C73.549 20.5267 73.4557 19.9667 73.269 19.5C73.0823 19.0333 72.8023 18.68 72.429 18.44C72.069 18.1867 71.6157 18.06 71.069 18.06C70.509 18.06 70.0357 18.1867 69.649 18.44C69.2623 18.6933 68.969 19.0667 68.769 19.56C68.569 20.04 68.469 20.6333 68.469 21.34C68.469 21.9933 68.5623 22.5667 68.749 23.06C68.9357 23.54 69.229 23.9133 69.629 24.18C70.029 24.4467 70.549 24.58 71.189 24.58C71.7757 24.58 72.2557 24.4667 72.629 24.24C73.0023 24.0133 73.2557 23.7333 73.389 23.4L76.329 23.4C76.169 24.1333 75.8557 24.7867 75.389 25.36C74.9223 25.9333 74.3357 26.38 73.629 26.7C72.9223 27.02 72.109 27.18 71.189 27.18ZM78.2495 26.8L78.2495 15.84L80.7895 15.84L80.7895 20.54L80.7295 20.54C80.7295 18.9933 81.0561 17.8 81.7095 16.96C82.3761 16.12 83.3361 15.7 84.5895 15.7L85.0095 15.7L85.0095 18.46L84.2095 18.46C83.3295 18.46 82.6495 18.7 82.1695 19.18C81.6895 19.6467 81.4495 20.3267 81.4495 21.22L81.4495 26.8L78.2495 26.8ZM90.4274 27.14C88.8674 27.14 87.6474 26.82 86.7674 26.18C85.8875 25.54 85.4208 24.64 85.3674 23.48L88.2074 23.48C88.2608 23.8267 88.4674 24.14 88.8274 24.42C89.2008 24.6867 89.7541 24.82 90.4874 24.82C91.0474 24.82 91.5074 24.7267 91.8674 24.54C92.2408 24.34 92.4274 24.06 92.4274 23.7C92.4274 23.38 92.2874 23.1267 92.0074 22.94C91.7274 22.74 91.2274 22.6 90.5074 22.52L89.6474 22.44C88.3274 22.3067 87.3341 21.94 86.6674 21.34C86.0141 20.74 85.6874 19.9733 85.6874 19.04C85.6874 18.2667 85.8808 17.62 86.2674 17.1C86.6541 16.58 87.1874 16.1867 87.8674 15.92C88.5608 15.6533 89.3474 15.52 90.2274 15.52C91.6408 15.52 92.7808 15.8333 93.6474 16.46C94.5141 17.0733 94.9674 17.9667 95.0074 19.14L92.1674 19.14C92.1141 18.78 91.9274 18.48 91.6074 18.24C91.2874 17.9867 90.8141 17.86 90.1874 17.86C89.6941 17.86 89.3008 17.9533 89.0074 18.14C88.7141 18.3267 88.5674 18.58 88.5674 18.9C88.5674 19.2067 88.6941 19.44 88.9474 19.6C89.2008 19.76 89.6141 19.8733 90.1874 19.94L91.0474 20.02C92.3941 20.1667 93.4408 20.54 94.1874 21.14C94.9341 21.74 95.3074 22.5467 95.3074 23.56C95.3074 24.2933 95.1074 24.9333 94.7074 25.48C94.3074 26.0133 93.7408 26.4267 93.0074 26.72C92.2741 27 91.4141 27.14 90.4274 27.14ZM102.321 27.18C101.361 27.18 100.507 27.0333 99.7607 26.74C99.0141 26.4333 98.3807 26.02 97.8607 25.5C97.3541 24.98 96.9674 24.3867 96.7007 23.72C96.4341 23.04 96.3007 22.3267 96.3007 21.58L96.3007 21.12C96.3007 20.36 96.4341 19.64 96.7007 18.96C96.9807 18.2667 97.3807 17.66 97.9007 17.14C98.4341 16.62 99.0741 16.2133 99.8207 15.92C100.567 15.6133 101.401 15.46 102.321 15.46C103.267 15.46 104.107 15.6133 104.841 15.92C105.587 16.2133 106.221 16.62 106.741 17.14C107.261 17.66 107.661 18.2667 107.941 18.96C108.221 19.64 108.361 20.36 108.361 21.12L108.361 21.58C108.361 22.3267 108.227 23.04 107.961 23.72C107.694 24.3867 107.301 24.98 106.781 25.5C106.274 26.02 105.647 26.4333 104.901 26.74C104.154 27.0333 103.294 27.18 102.321 27.18ZM102.321 24.48C102.947 24.48 103.467 24.3467 103.881 24.08C104.294 23.8133 104.607 23.44 104.821 22.96C105.047 22.48 105.161 21.9467 105.161 21.36C105.161 20.7333 105.047 20.1867 104.821 19.72C104.594 19.24 104.267 18.86 103.841 18.58C103.427 18.3 102.921 18.16 102.321 18.16C101.734 18.16 101.227 18.3 100.801 18.58C100.374 18.86 100.047 19.24 99.8207 19.72C99.6074 20.1867 99.5007 20.7333 99.5007 21.36C99.5007 21.9467 99.6074 22.48 99.8207 22.96C100.034 23.44 100.354 23.8133 100.781 24.08C101.207 24.3467 101.721 24.48 102.321 24.48ZM110.194 26.8L110.194 15.84L112.734 15.84L112.734 20.54L112.554 20.54C112.554 19.42 112.694 18.4867 112.974 17.74C113.267 16.9933 113.707 16.4333 114.294 16.06C114.881 15.6867 115.594 15.5 116.434 15.5L116.574 15.5C117.854 15.5 118.827 15.92 119.494 16.76C120.174 17.5867 120.514 18.8467 120.514 20.54L120.514 26.8L117.314 26.8L117.314 20.36C117.314 19.7733 117.141 19.2933 116.794 18.92C116.447 18.5467 115.981 18.36 115.394 18.36C114.794 18.36 114.307 18.5533 113.934 18.94C113.574 19.3133 113.394 19.8067 113.394 20.42L113.394 26.8L110.194 26.8ZM129.461 26.8L129.461 23.56L128.921 23.56L128.921 20.04C128.921 19.48 128.788 19.06 128.521 18.78C128.254 18.5 127.828 18.36 127.241 18.36C126.948 18.36 126.561 18.3667 126.081 18.38C125.601 18.3933 125.108 18.4133 124.601 18.44C124.094 18.4667 123.634 18.4933 123.221 18.52L123.221 15.82C123.528 15.7933 123.888 15.7667 124.301 15.74C124.714 15.7133 125.141 15.6933 125.581 15.68C126.021 15.6667 126.434 15.66 126.821 15.66C127.941 15.66 128.881 15.82 129.641 16.14C130.414 16.46 131.001 16.9467 131.401 17.6C131.801 18.24 132.001 19.0667 132.001 20.08L132.001 26.8L129.461 26.8ZM125.961 27.08C125.174 27.08 124.481 26.94 123.881 26.66C123.294 26.38 122.834 25.98 122.501 25.46C122.168 24.9267 122.001 24.2933 122.001 23.56C122.001 22.76 122.208 22.1067 122.621 21.6C123.034 21.08 123.614 20.7 124.361 20.46C125.108 20.2067 125.968 20.08 126.941 20.08L129.281 20.08L129.281 21.86L126.921 21.86C126.361 21.86 125.928 22 125.621 22.28C125.328 22.5467 125.181 22.9133 125.181 23.38C125.181 23.82 125.328 24.18 125.621 24.46C125.928 24.7267 126.361 24.86 126.921 24.86C127.281 24.86 127.601 24.8 127.881 24.68C128.174 24.5467 128.414 24.3267 128.601 24.02C128.788 23.7133 128.894 23.2867 128.921 22.74L129.681 23.54C129.614 24.3 129.428 24.94 129.121 25.46C128.828 25.98 128.414 26.38 127.881 26.66C127.361 26.94 126.721 27.08 125.961 27.08ZM134.456 26.8L134.456 12.2L137.676 12.2L137.676 26.8L134.456 26.8ZM133.156 14.56L133.156 12.2L137.676 12.2L137.676 14.56L133.156 14.56Z" fill="rgb(0,0,0)" fill-rule="nonzero" />
</svg>
